<svg width="17" height="17" viewBox="0 0 17 17" fill="none" xmlns="http://www.w3.org/2000/svg">
<path d="M16.9999 1.01753C16.9999 0.455563 16.5444 -2.5668e-10 15.9824 -2.5757e-07L6.82466 5.57256e-07C6.26269 2.14171e-07 5.80713 0.455563 5.80713 1.01753C5.80713 1.57949 6.26269 2.03506 6.82466 2.03506L14.9649 2.03506L14.9649 10.1753C14.9649 10.7372 15.4204 11.1928 15.9824 11.1928C16.5444 11.1928 16.9999 10.7372 16.9999 10.1753L16.9999 1.01753ZM0.719486 16.2805L1.43899 17L16.7019 1.73703L15.9824 1.01753L15.2629 0.298027L-1.47378e-05 15.561L0.719486 16.2805Z" fill="#E4E4E4"/>
</svg>
