<svg width="36" height="36" viewBox="0 0 36 36" fill="none" xmlns="http://www.w3.org/2000/svg">
<path d="M29.9248 31.4999C26.7998 31.4999 23.7123 30.8189 20.6624 29.457C17.6124 28.095 14.8374 26.1635 12.3374 23.6625C9.83743 21.1615 7.90645 18.3865 6.54446 15.3376C5.18246 12.2886 4.50097 9.20109 4.49997 6.07511C4.49997 5.62512 4.64997 5.25012 4.94997 4.95012C5.24996 4.65012 5.62496 4.50012 6.07496 4.50012H12.1499C12.4999 4.50012 12.8124 4.61912 13.0874 4.85712C13.3624 5.09512 13.5249 5.37612 13.5749 5.70012L14.5499 10.9501C14.5999 11.3501 14.5874 11.6876 14.5124 11.9626C14.4374 12.2376 14.2999 12.4751 14.0999 12.6751L10.4624 16.35C10.9624 17.275 11.5559 18.1685 12.2429 19.0305C12.9299 19.8925 13.6864 20.724 14.5124 21.525C15.2874 22.3 16.0999 23.019 16.9499 23.682C17.7999 24.345 18.6999 24.951 19.6499 25.5L23.1748 21.975C23.3998 21.75 23.6938 21.5815 24.0568 21.4695C24.4198 21.3575 24.7758 21.326 25.1248 21.375L30.2998 22.425C30.6498 22.525 30.9373 22.7065 31.1623 22.9695C31.3873 23.2325 31.4998 23.526 31.4998 23.85V29.925C31.4998 30.375 31.3498 30.7499 31.0498 31.0499C30.7498 31.3499 30.3748 31.4999 29.9248 31.4999ZM9.03744 13.5001L11.5124 11.0251L10.8749 7.5001H7.53745C7.66245 8.5251 7.83745 9.53759 8.06244 10.5376C8.28744 11.5376 8.61244 12.5251 9.03744 13.5001ZM22.4623 26.925C23.4373 27.35 24.4313 27.6875 25.4443 27.9375C26.4573 28.1875 27.4758 28.35 28.4998 28.425V25.125L24.9748 24.4125L22.4623 26.925Z" fill="#E9E7E7"/>
</svg>
