<svg width="55" height="55" viewBox="0 0 55 55" fill="none" xmlns="http://www.w3.org/2000/svg">
<path d="M9.16732 45.8337C7.9069 45.8337 6.82829 45.3853 5.93148 44.4885C5.03468 43.5916 4.58551 42.5123 4.58398 41.2503V13.7503C4.58398 12.4899 5.03315 11.4113 5.93148 10.5145C6.82982 9.61769 7.90843 9.16852 9.16732 9.16699H45.834C47.0944 9.16699 48.1738 9.61616 49.0721 10.5145C49.9704 11.4128 50.4188 12.4914 50.4173 13.7503V41.2503C50.4173 42.5107 49.9689 43.5901 49.0721 44.4885C48.1753 45.3868 47.0959 45.8352 45.834 45.8337H9.16732ZM27.5006 29.391C27.6916 29.391 27.8925 29.3619 28.1034 29.3039C28.3142 29.2458 28.5143 29.1603 28.7038 29.0472L44.9173 18.9066C45.2229 18.7156 45.452 18.4773 45.6048 18.1916C45.7576 17.9059 45.834 17.5904 45.834 17.2451C45.834 16.4812 45.5093 15.9083 44.86 15.5264C44.2107 15.1444 43.5423 15.1635 42.8548 15.5837L27.5006 25.2087L12.1465 15.5837C11.459 15.1635 10.7906 15.1544 10.1413 15.5562C9.49197 15.958 9.16732 16.521 9.16732 17.2451C9.16732 17.6271 9.24371 17.9616 9.39648 18.2489C9.54926 18.5361 9.77843 18.7553 10.084 18.9066L26.2975 29.0472C26.4885 29.1618 26.6894 29.2481 26.9002 29.3062C27.1111 29.3642 27.3112 29.3925 27.5006 29.391Z" fill="#FFFDFD"/>
</svg>
