<svg width="42" height="41" viewBox="0 0 42 41" fill="none" xmlns="http://www.w3.org/2000/svg">
<path d="M31.6042 17.519C31.6042 17.5953 31.6025 17.671 31.5991 17.7462C31.1169 17.3184 30.4944 17.0825 29.8498 17.0834C29.573 17.0834 29.3037 17.1255 29.0417 17.2098V9.82294C29.0417 9.48313 28.9067 9.15724 28.6664 8.91696C28.4262 8.67668 28.1003 8.54169 27.7605 8.54169H13.2396C12.8998 8.54169 12.5739 8.67668 12.3336 8.91696C12.0934 9.15724 11.9584 9.48313 11.9584 9.82294V17.519C11.9584 18.2262 12.5324 18.8002 13.2396 18.8002H27.3778L27.3607 18.8429L27.3556 18.8634L26.5868 21.2278L26.5698 21.2722L26.5373 21.3627H13.2396C12.2202 21.3627 11.2425 20.9578 10.5217 20.2369C9.80084 19.5161 9.39588 18.5384 9.39588 17.519V9.82294C9.39588 8.80351 9.80084 7.82584 10.5217 7.105C11.2425 6.38415 12.2202 5.97919 13.2396 5.97919H19.2188V4.69794C19.2189 4.38807 19.3312 4.08872 19.5351 3.85534C19.7389 3.62197 20.0205 3.47037 20.3275 3.42865L20.5 3.41669C20.8099 3.41676 21.1093 3.52912 21.3426 3.73297C21.576 3.93683 21.7276 4.21835 21.7693 4.5254L21.7813 4.69794L21.7796 5.97919H27.7588C28.7782 5.97919 29.7559 6.38415 30.4767 7.105C31.1975 7.82584 31.6025 8.80351 31.6025 9.82294L31.6042 17.519ZM22.2818 23.9782L22.4732 23.9167H10.684C9.66453 23.9167 8.68686 24.3217 7.96602 25.0425C7.24517 25.7633 6.84021 26.741 6.84021 27.7604V29.3099C6.84004 30.2325 7.03915 31.1442 7.42393 31.9828C7.8087 32.8213 8.37005 33.5669 9.06958 34.1684C11.7397 36.4627 15.5647 37.5851 20.5 37.5851C24.0465 37.5851 27.0208 37.0059 29.4056 35.8289C28.9522 35.7421 28.5295 35.5383 28.1792 35.2378C27.8289 34.9372 27.5632 34.5503 27.4085 34.1154L27.4017 34.0949L27.3505 33.9361C25.4952 34.657 23.2163 35.0226 20.5 35.0226C16.1284 35.0226 12.8894 34.0727 10.7403 32.2243C10.3207 31.8635 9.98394 31.4163 9.75308 30.9133C9.52222 30.4103 9.40271 29.8633 9.40271 29.3099V27.7604C9.40271 27.4206 9.5377 27.0947 9.77798 26.8545C10.0183 26.6142 10.3442 26.4792 10.684 26.4792H20.5V26.4741C20.4991 25.9279 20.6682 25.3951 20.9838 24.9494C21.2994 24.5037 21.7459 24.1672 22.2613 23.9867L22.2818 23.9782ZM18.79 13.2396C18.7981 12.9542 18.7488 12.6701 18.6452 12.4041C18.5416 12.138 18.3856 11.8955 18.1866 11.6907C17.9876 11.486 17.7496 11.3233 17.4866 11.2122C17.2236 11.101 16.9409 11.0438 16.6554 11.0438C16.3699 11.0438 16.0873 11.101 15.8243 11.2122C15.5613 11.3233 15.3233 11.486 15.1243 11.6907C14.9253 11.8955 14.7693 12.138 14.6657 12.4041C14.562 12.6701 14.5128 12.9542 14.5209 13.2396C14.5366 13.7953 14.7684 14.3229 15.167 14.7104C15.5656 15.0979 16.0995 15.3146 16.6554 15.3146C17.2113 15.3146 17.7453 15.0979 18.1439 14.7104C18.5425 14.3229 18.7743 13.7953 18.79 13.2396ZM24.3301 11.1042C24.6155 11.0961 24.8996 11.1454 25.1657 11.249C25.4317 11.3526 25.6743 11.5086 25.879 11.7076C26.0837 11.9066 26.2464 12.1446 26.3576 12.4076C26.4687 12.6706 26.5259 12.9532 26.5259 13.2387C26.5259 13.5243 26.4687 13.8069 26.3576 14.0699C26.2464 14.3329 26.0837 14.5709 25.879 14.7699C25.6743 14.9689 25.4317 15.1249 25.1657 15.2285C24.8996 15.3321 24.6155 15.3814 24.3301 15.3733C23.7745 15.3576 23.2468 15.1258 22.8594 14.7272C22.4719 14.3286 22.2551 13.7946 22.2551 13.2387C22.2551 12.6829 22.4719 12.1489 22.8594 11.7503C23.2468 11.3517 23.7745 11.1199 24.3301 11.1042ZM27.4854 29.7455C26.8972 28.9848 26.0954 28.4167 25.1826 28.1141L22.8302 27.3487C22.6495 27.2844 22.4931 27.1657 22.3825 27.0089C22.2719 26.8522 22.2125 26.6651 22.2125 26.4732C22.2125 26.2814 22.2719 26.0942 22.3825 25.9375C22.4931 25.7807 22.6495 25.662 22.8302 25.5977L25.1826 24.8324C25.8795 24.592 26.5125 24.196 27.0335 23.6745C27.5544 23.1529 27.9497 22.5195 28.1893 21.8223L28.2063 21.7642L28.9734 19.4118C29.0374 19.2305 29.156 19.0735 29.313 18.9624C29.4699 18.8514 29.6575 18.7917 29.8498 18.7917C30.042 18.7917 30.2296 18.8514 30.3865 18.9624C30.5435 19.0735 30.6621 19.2305 30.7261 19.4118L31.4915 21.7642C31.73 22.479 32.1318 23.1284 32.6649 23.661C33.1981 24.1936 33.848 24.5946 34.563 24.8324L36.9171 25.5977L36.9633 25.6096C37.144 25.674 37.3004 25.7927 37.411 25.9494C37.5216 26.1062 37.5809 26.2933 37.5809 26.4852C37.5809 26.677 37.5216 26.8642 37.411 27.0209C37.3004 27.1777 37.144 27.2964 36.9633 27.3607L34.6092 28.126C33.8941 28.3638 33.2442 28.7648 32.711 29.2974C32.1779 29.8299 31.7761 30.4794 31.5376 31.1942L30.774 33.5466C30.7088 33.7278 30.5895 33.8846 30.4323 33.9959C30.315 34.0788 30.1801 34.1334 30.0381 34.1554C29.8962 34.1774 29.751 34.1662 29.6141 34.1227C29.4772 34.0791 29.3523 34.0044 29.2491 33.9045C29.1459 33.8045 29.0673 33.682 29.0195 33.5466L28.2542 31.1942C28.0832 30.6706 27.8232 30.1806 27.4854 29.7455ZM40.6293 36.2389L39.3225 35.8152C38.9253 35.6829 38.5643 35.4599 38.2681 35.164C37.9719 34.8681 37.7486 34.5074 37.6158 34.1103L37.1905 32.8034C37.1551 32.7025 37.0892 32.6151 37.002 32.5533C36.9148 32.4914 36.8105 32.4582 36.7036 32.4582C36.5967 32.4582 36.4924 32.4914 36.4052 32.5533C36.3179 32.6151 36.2521 32.7025 36.2167 32.8034L35.7913 34.1086C35.6616 34.5031 35.4425 34.8623 35.1513 35.1583C34.86 35.4543 34.5044 35.6791 34.112 35.8152L32.8035 36.2389C32.7026 36.2743 32.6151 36.3401 32.5533 36.4273C32.4914 36.5146 32.4582 36.6188 32.4582 36.7258C32.4582 36.8327 32.4914 36.937 32.5533 37.0242C32.6151 37.1114 32.7026 37.1773 32.8035 37.2126L34.112 37.638C34.51 37.7711 34.8714 37.995 35.1677 38.2922C35.4639 38.5893 35.6868 38.9514 35.8187 39.3498L36.2423 40.6549C36.2785 40.7551 36.3446 40.8416 36.4318 40.9028C36.5189 40.964 36.6228 40.9968 36.7292 40.9968C36.8357 40.9968 36.9395 40.964 37.0267 40.9028C37.1138 40.8416 37.1799 40.7551 37.2161 40.6549L37.6432 39.3498C37.7755 38.9526 37.9985 38.5916 38.2944 38.2954C38.5903 37.9992 38.951 37.7759 39.3481 37.6431L40.6567 37.2195C40.7576 37.1841 40.845 37.1183 40.9069 37.031C40.9687 36.9438 41.0019 36.8395 41.0019 36.7326C41.0019 36.6257 40.9687 36.5214 40.9069 36.4342C40.845 36.3469 40.7576 36.2811 40.6567 36.2457L40.6293 36.2389Z" fill="#CFCFCF"/>
</svg>
