<svg width="55" height="55" viewBox="0 0 55 55" fill="none" xmlns="http://www.w3.org/2000/svg">
<path fill-rule="evenodd" clip-rule="evenodd" d="M27.5 4.5835C32.9701 4.5835 38.2161 6.75648 42.0841 10.6244C45.952 14.4924 48.125 19.7384 48.125 25.2085C48.125 32.2531 44.2842 38.0189 40.2371 42.1554C38.2151 44.1997 36.0088 46.0531 33.6463 47.692L32.67 48.3566L32.2117 48.6614L31.3477 49.2114L30.5777 49.6812L29.6244 50.2358C28.9773 50.6051 28.2451 50.7994 27.5 50.7994C26.7549 50.7994 26.0227 50.6051 25.3756 50.2358L24.4223 49.6812L23.2306 48.9479L22.7906 48.6614L21.851 48.0358C19.3023 46.3114 16.9283 44.3418 14.7629 42.1554C10.7158 38.0166 6.875 32.2531 6.875 25.2085C6.875 19.7384 9.04798 14.4924 12.9159 10.6244C16.7839 6.75648 22.0299 4.5835 27.5 4.5835ZM27.5 9.16683C23.2455 9.16683 19.1652 10.8569 16.1568 13.8653C13.1484 16.8737 11.4583 20.954 11.4583 25.2085C11.4583 30.5297 14.3733 35.2002 18.0377 38.9493C19.6133 40.5443 21.3163 42.0082 23.1298 43.3264L24.1794 44.0735C24.5185 44.3103 24.8447 44.5303 25.1579 44.7335L26.0517 45.3064L26.8377 45.7854L27.5 46.1727L28.5427 45.5562L29.3837 45.0291C29.8314 44.745 30.3103 44.4264 30.8206 44.0735L31.8702 43.3264C33.6837 42.0082 35.3867 40.5443 36.9623 38.9493C40.6267 35.2025 43.5417 30.5297 43.5417 25.2085C43.5417 20.954 41.8516 16.8737 38.8432 13.8653C35.8348 10.8569 31.7545 9.16683 27.5 9.16683ZM27.5 16.0418C29.9312 16.0418 32.2627 17.0076 33.9818 18.7267C35.7009 20.4458 36.6667 22.7773 36.6667 25.2085C36.6667 27.6396 35.7009 29.9712 33.9818 31.6903C32.2627 33.4094 29.9312 34.3752 27.5 34.3752C25.0688 34.3752 22.7373 33.4094 21.0182 31.6903C19.2991 29.9712 18.3333 27.6396 18.3333 25.2085C18.3333 22.7773 19.2991 20.4458 21.0182 18.7267C22.7373 17.0076 25.0688 16.0418 27.5 16.0418ZM27.5 20.6252C26.2844 20.6252 25.1186 21.108 24.2591 21.9676C23.3996 22.8271 22.9167 23.9929 22.9167 25.2085C22.9167 26.4241 23.3996 27.5899 24.2591 28.4494C25.1186 29.3089 26.2844 29.7918 27.5 29.7918C28.7156 29.7918 29.8814 29.3089 30.7409 28.4494C31.6004 27.5899 32.0833 26.4241 32.0833 25.2085C32.0833 23.9929 31.6004 22.8271 30.7409 21.9676C29.8814 21.108 28.7156 20.6252 27.5 20.6252Z" fill="#FFF9F8"/>
</svg>
