<svg width="120" height="120" viewBox="0 0 120 120" fill="none" xmlns="http://www.w3.org/2000/svg">
<path fill-rule="evenodd" clip-rule="evenodd" d="M45 7.5C41.519 7.5 38.1806 8.88281 35.7192 11.3442C33.2578 13.8056 31.875 17.144 31.875 20.625V30H22.5C18.5218 30 14.7064 31.5804 11.8934 34.3934C9.08035 37.2064 7.5 41.0218 7.5 45V97.5C7.5 101.478 9.08035 105.294 11.8934 108.107C14.7064 110.92 18.5218 112.5 22.5 112.5H97.5C101.478 112.5 105.294 110.92 108.107 108.107C110.92 105.294 112.5 101.478 112.5 97.5V45C112.5 41.0218 110.92 37.2064 108.107 34.3934C105.294 31.5804 101.478 30 97.5 30H88.125V20.625C88.125 17.144 86.7422 13.8056 84.2808 11.3442C81.8194 8.88281 78.481 7.5 75 7.5H45ZM76.875 30V20.625C76.875 20.1277 76.6775 19.6508 76.3258 19.2992C75.9742 18.9475 75.4973 18.75 75 18.75H45C44.5027 18.75 44.0258 18.9475 43.6742 19.2992C43.3225 19.6508 43.125 20.1277 43.125 20.625V30H76.875ZM22.5 41.25H97.5C98.4946 41.25 99.4484 41.6451 100.152 42.3484C100.855 43.0516 101.25 44.0054 101.25 45V52.5H18.75V45C18.75 44.0054 19.1451 43.0516 19.8484 42.3484C20.5516 41.6451 21.5054 41.25 22.5 41.25ZM18.75 63.75V97.5C18.75 98.4946 19.1451 99.4484 19.8484 100.152C20.5516 100.855 21.5054 101.25 22.5 101.25H97.5C98.4946 101.25 99.4484 100.855 100.152 100.152C100.855 99.4484 101.25 98.4946 101.25 97.5V63.75H67.5V75H52.5V63.75H18.75Z" fill="#E6E6E6"/>
</svg>
