<svg width="55" height="55" viewBox="0 0 55 55" fill="none" xmlns="http://www.w3.org/2000/svg">
<path d="M45.7188 48.125C40.9444 48.125 36.2274 47.0846 31.5677 45.0038C26.908 42.9229 22.6684 39.972 18.849 36.151C15.0295 32.3301 12.0794 28.0905 9.99854 23.4323C7.91771 18.7741 6.87653 14.0571 6.875 9.28125C6.875 8.59375 7.10417 8.02083 7.5625 7.5625C8.02083 7.10417 8.59375 6.875 9.28125 6.875H18.5625C19.0972 6.875 19.5747 7.05681 19.9948 7.42042C20.4149 7.78403 20.6632 8.21333 20.7396 8.70833L22.2292 16.7292C22.3056 17.3403 22.2865 17.8559 22.1719 18.276C22.0573 18.6962 21.8472 19.059 21.5417 19.3646L15.9844 24.9792C16.7483 26.3924 17.655 27.7574 18.7046 29.0744C19.7542 30.3913 20.9099 31.6617 22.1719 32.8854C23.3559 34.0694 24.5972 35.1679 25.8958 36.1808C27.1944 37.1938 28.5694 38.1196 30.0208 38.9583L35.4062 33.5729C35.75 33.2292 36.1992 32.9717 36.7538 32.8006C37.3083 32.6295 37.8522 32.5814 38.3854 32.6562L46.2917 34.2604C46.8264 34.4132 47.2656 34.6905 47.6094 35.0923C47.9531 35.4941 48.125 35.9425 48.125 36.4375V45.7188C48.125 46.4063 47.8958 46.9792 47.4375 47.4375C46.9792 47.8958 46.4063 48.125 45.7188 48.125ZM13.8073 20.625L17.5885 16.8438L16.6146 11.4583H11.5156C11.7066 13.0243 11.974 14.5712 12.3177 16.099C12.6615 17.6267 13.158 19.1354 13.8073 20.625ZM34.3177 41.1354C35.8073 41.7847 37.3259 42.3004 38.8735 42.6823C40.4212 43.0642 41.9772 43.3125 43.5417 43.4271V38.3854L38.1562 37.2969L34.3177 41.1354Z" fill="#FFFDFD"/>
</svg>
