<svg width="36" height="36" viewBox="0 0 36 36" fill="none" xmlns="http://www.w3.org/2000/svg">
<path d="M5.9999 30.0002C5.1749 30.0002 4.46891 29.7067 3.88191 29.1197C3.29492 28.5327 3.00092 27.8262 2.99992 27.0002V9.00031C2.99992 8.17532 3.29392 7.46932 3.88191 6.88232C4.46991 6.29533 5.1759 6.00133 5.9999 6.00033H29.9997C30.8247 6.00033 31.5312 6.29433 32.1192 6.88232C32.7072 7.47032 33.0007 8.17632 32.9997 9.00031V27.0002C32.9997 27.8252 32.7062 28.5317 32.1192 29.1197C31.5322 29.7077 30.8257 30.0012 29.9997 30.0002H5.9999ZM17.9998 19.2377C18.1248 19.2377 18.2563 19.2187 18.3943 19.1807C18.5323 19.1427 18.6633 19.0867 18.7873 19.0127L29.3997 12.3753C29.5997 12.2503 29.7497 12.0943 29.8497 11.9073C29.9497 11.7203 29.9997 11.5138 29.9997 11.2878C29.9997 10.7878 29.7872 10.4128 29.3622 10.1628C28.9372 9.9128 28.4997 9.9253 28.0497 10.2003L17.9998 16.5003L7.94988 10.2003C7.49989 9.9253 7.06239 9.9193 6.63739 10.1823C6.2124 10.4453 5.9999 10.8138 5.9999 11.2878C5.9999 11.5378 6.0499 11.7568 6.1499 11.9448C6.2499 12.1328 6.39989 12.2763 6.59989 12.3753L17.2123 19.0127C17.3373 19.0877 17.4688 19.1442 17.6068 19.1822C17.7448 19.2202 17.8758 19.2387 17.9998 19.2377Z" fill="#E9E7E7"/>
</svg>
