<svg width="120" height="120" viewBox="0 0 120 120" fill="none" xmlns="http://www.w3.org/2000/svg">
<path d="M60 35C62.7614 35 65 32.7614 65 30C65 27.2386 62.7614 25 60 25C57.2386 25 55 27.2386 55 30C55 32.7614 57.2386 35 60 35Z" fill="#E6E6E6"/>
<path d="M30 85H90V95H30V85ZM50 59.15L63.96 73.12L83.62 53.445L90 60V40H70L76.55 46.375L63.955 58.97L50 45L30 65L37.07 72.07L50 59.15Z" fill="#E6E6E6"/>
<path d="M95 14.9999H78.51C78.0148 14.2636 77.4807 13.5543 76.91 12.8749L76.86 12.8149C73.1851 8.53772 68.0172 5.82324 62.41 5.22485C60.8174 4.9244 59.1826 4.9244 57.59 5.22485C51.9828 5.82324 46.8149 8.53772 43.14 12.8149L43.09 12.8749C42.5195 13.5527 41.9854 14.2603 41.49 14.9949V14.9999H25C21.023 15.0038 17.21 16.5855 14.3978 19.3976C11.5856 22.2098 10.004 26.0228 10 29.9999V99.9999C10.004 103.977 11.5856 107.79 14.3978 110.602C17.21 113.414 21.023 114.996 25 115H95C98.977 114.996 102.79 113.414 105.602 110.602C108.414 107.79 109.996 103.977 110 99.9999V29.9999C109.996 26.0228 108.414 22.2098 105.602 19.3976C102.79 16.5855 98.977 15.0038 95 14.9999ZM100 99.9999C100 101.326 99.4732 102.598 98.5355 103.535C97.5979 104.473 96.3261 105 95 105H25C23.6739 105 22.4022 104.473 21.4645 103.535C20.5268 102.598 20 101.326 20 99.9999V29.9999C20 28.6738 20.5268 27.402 21.4645 26.4643C22.4022 25.5266 23.6739 24.9999 25 24.9999H47.75C48.3238 22.1741 49.8568 19.6337 52.0894 17.8089C54.3219 15.9842 57.1166 14.9873 60 14.9873C62.8834 14.9873 65.6781 15.9842 67.9107 17.8089C70.1432 19.6337 71.6762 22.1741 72.25 24.9999H95C96.3261 24.9999 97.5979 25.5266 98.5355 26.4643C99.4732 27.402 100 28.6738 100 29.9999V99.9999Z" fill="#E6E6E6"/>
</svg>
