<svg width="36" height="36" viewBox="0 0 36 36" fill="none" xmlns="http://www.w3.org/2000/svg">
<path fill-rule="evenodd" clip-rule="evenodd" d="M17.9999 2.99992C21.5803 2.99992 25.014 4.42222 27.5458 6.95395C30.0775 9.48567 31.4998 12.9194 31.4998 16.4998C31.4998 21.1108 28.9858 24.8848 26.3368 27.5923C25.0133 28.9303 23.5692 30.1435 22.0229 31.2162L21.3839 31.6512L21.0839 31.8507L20.5184 32.2107L20.0144 32.5182L19.3904 32.8812C18.9668 33.123 18.4876 33.2501 17.9999 33.2501C17.5122 33.2501 17.0329 33.123 16.6094 32.8812L15.9854 32.5182L15.2054 32.0382L14.9174 31.8507L14.3024 31.4412C12.6342 30.3125 11.0803 29.0234 9.66293 27.5923C7.01395 24.8833 4.49997 21.1108 4.49997 16.4998C4.49997 12.9194 5.92228 9.48567 8.454 6.95395C10.9857 4.42222 14.4195 2.99992 17.9999 2.99992ZM17.9999 5.9999C15.2151 5.9999 12.5444 7.10614 10.5753 9.07525C8.60619 11.0444 7.49995 13.7151 7.49995 16.4998C7.49995 19.9828 9.40794 23.0398 11.8064 25.4938C12.8377 26.5377 13.9524 27.4959 15.1394 28.3587L15.8264 28.8477C16.0484 29.0027 16.2619 29.1467 16.4669 29.2797L17.0519 29.6547L17.5664 29.9682L17.9999 30.2217L18.6824 29.8182L19.2329 29.4732C19.5259 29.2872 19.8394 29.0787 20.1734 28.8477L20.8604 28.3587C22.0474 27.4959 23.162 26.5377 24.1933 25.4938C26.5918 23.0413 28.4998 19.9828 28.4998 16.4998C28.4998 13.7151 27.3936 11.0444 25.4244 9.07525C23.4553 7.10614 20.7846 5.9999 17.9999 5.9999ZM17.9999 10.4999C19.5912 10.4999 21.1173 11.132 22.2425 12.2572C23.3677 13.3824 23.9998 14.9085 23.9998 16.4998C23.9998 18.0911 23.3677 19.6172 22.2425 20.7424C21.1173 21.8676 19.5912 22.4998 17.9999 22.4998C16.4086 22.4998 14.8825 21.8676 13.7573 20.7424C12.6321 19.6172 11.9999 18.0911 11.9999 16.4998C11.9999 14.9085 12.6321 13.3824 13.7573 12.2572C14.8825 11.132 16.4086 10.4999 17.9999 10.4999ZM17.9999 13.4998C17.2042 13.4998 16.4412 13.8159 15.8786 14.3785C15.316 14.9411 14.9999 15.7042 14.9999 16.4998C14.9999 17.2955 15.316 18.0585 15.8786 18.6211C16.4412 19.1837 17.2042 19.4998 17.9999 19.4998C18.7955 19.4998 19.5586 19.1837 20.1212 18.6211C20.6838 18.0585 20.9999 17.2955 20.9999 16.4998C20.9999 15.7042 20.6838 14.9411 20.1212 14.3785C19.5586 13.8159 18.7955 13.4998 17.9999 13.4998Z" fill="#E9E7E7"/>
</svg>
